<?xml version="1.0" standalone="no"?><svg xmlns="http://www.w3.org/2000/svg" viewBox="0 0 1440 320"><path fill="#000b76" fill-opacity="1" d="M0,320L13.3,282.7C26.7,245,53,171,80,133.3C106.7,96,133,96,160,96C186.7,96,213,96,240,128C266.7,160,293,224,320,256C346.7,288,373,288,400,250.7C426.7,213,453,139,480,133.3C506.7,128,533,192,560,208C586.7,224,613,192,640,160C666.7,128,693,96,720,85.3C746.7,75,773,85,800,122.7C826.7,160,853,224,880,245.3C906.7,267,933,245,960,250.7C986.7,256,1013,288,1040,256C1066.7,224,1093,128,1120,106.7C1146.7,85,1173,139,1200,165.3C1226.7,192,1253,192,1280,170.7C1306.7,149,1333,107,1360,122.7C1386.7,139,1413,213,1427,250.7L1440,288L1440,0L1426.7,0C1413.3,0,1387,0,1360,0C1333.3,0,1307,0,1280,0C1253.3,0,1227,0,1200,0C1173.3,0,1147,0,1120,0C1093.3,0,1067,0,1040,0C1013.3,0,987,0,960,0C933.3,0,907,0,880,0C853.3,0,827,0,800,0C773.3,0,747,0,720,0C693.3,0,667,0,640,0C613.3,0,587,0,560,0C533.3,0,507,0,480,0C453.3,0,427,0,400,0C373.3,0,347,0,320,0C293.3,0,267,0,240,0C213.3,0,187,0,160,0C133.3,0,107,0,80,0C53.3,0,27,0,13,0L0,0Z"></path></svg>