<?xml version="1.0" standalone="no"?><svg xmlns="http://www.w3.org/2000/svg" viewBox="0 0 1440 320"><path fill="#000b76" fill-opacity="1" d="M0,320L13.3,282.7C26.7,245,53,171,80,133.3C106.7,96,133,96,160,96C186.7,96,213,96,240,128C266.7,160,293,224,320,256C346.7,288,373,288,400,250.7C426.7,213,453,139,480,133.3C506.7,128,533,192,560,208C586.7,224,613,192,640,160C666.7,128,693,96,720,85.3C746.7,75,773,85,800,122.7C826.7,160,853,224,880,245.3C906.7,267,933,245,960,250.7C986.7,256,1013,288,1040,256C1066.7,224,1093,128,1120,106.7C1146.7,85,1173,139,1200,165.3C1226.7,192,1253,192,1280,170.7C1306.7,149,1333,107,1360,122.7C1386.7,139,1413,213,1427,250.7L1440,288L1440,320L1426.7,320C1413.3,320,1387,320,1360,320C1333.3,320,1307,320,1280,320C1253.3,320,1227,320,1200,320C1173.3,320,1147,320,1120,320C1093.3,320,1067,320,1040,320C1013.3,320,987,320,960,320C933.3,320,907,320,880,320C853.3,320,827,320,800,320C773.3,320,747,320,720,320C693.3,320,667,320,640,320C613.3,320,587,320,560,320C533.3,320,507,320,480,320C453.3,320,427,320,400,320C373.3,320,347,320,320,320C293.3,320,267,320,240,320C213.3,320,187,320,160,320C133.3,320,107,320,80,320C53.3,320,27,320,13,320L0,320Z"></path></svg>